<?xml version="1.0" encoding="UTF-8" standalone="no"?>
<svg width="511px" height="510px" viewBox="0 0 511 510" version="1.1" xmlns="http://www.w3.org/2000/svg" xmlns:xlink="http://www.w3.org/1999/xlink">
    <!-- Generator: Sketch 40.1 (33804) - http://www.bohemiancoding.com/sketch -->
    <title>Big -- Guy: Plaid Shirt</title>
    <desc>Created with Sketch.</desc>
    <defs>
        <rect id="path-1" x="0" y="1.13686838e-13" width="512" height="512"></rect>
    </defs>
    <g id="Page-1" stroke="none" stroke-width="1" fill="none" fill-rule="evenodd">
        <g id="Desktop-HD" transform="translate(-927.000000, -514.000000)">
            <g id="Big----Guy:-Plaid-Shirt" transform="translate(925.149367, 514.149367)">
                <mask id="mask-2" fill="white">
                    <use xlink:href="#path-1"></use>
                </mask>
                <g id="Mask"></g>
                <g id="Guy:-Plaid-Shirt-Copy" mask="url(#mask-2)">
                    <g transform="translate(1.636074, -0.794898)">
                        <polygon id="Fill-1300" fill="#FFCC00" fill-rule="evenodd" points="0.812391964 1510.47367 511.130522 1510.47367 511.130522 0.394368702 0.812391964 0.394368702"></polygon>
                        <polygon id="Fill-1300-Copy" fill="#FFCC00" fill-rule="evenodd" points="0.812391964 1510.47367 511.130522 1510.47367 511.130522 0.394368702 0.812391964 0.394368702"></polygon>
                        <polygon id="Fill-1307" fill="#DBB4AB" fill-rule="evenodd" points="197.091289 465.036279 314.858627 465.036279 314.858627 329.512269 197.091289 329.512269"></polygon>
                        <polyline id="Fill-1308" fill="none" points="197.091289 329.512269 314.858627 329.512269 314.858627 465.036279 293.833996 465.036279 197.091289 369.606659 197.091289 329.512269"></polyline>
                        <path d="M354.114406,213.351791 C343.276534,213.351791 334.490017,222.018422 334.490017,232.715324 C334.490017,243.405319 343.276534,252.07195 354.114406,252.07195 C364.952278,252.07195 373.745796,243.405319 373.745796,232.715324 C373.745796,222.018422 364.952278,213.351791 354.114406,213.351791" id="Fill-1309" fill="#FFD6CC" fill-rule="evenodd"></path>
                        <path d="M354.114406,223.033557 C348.69547,223.033557 344.298711,227.370326 344.298711,232.715324 C344.298711,238.060322 348.69547,242.390184 354.114406,242.390184 C359.533342,242.390184 363.930101,238.060322 363.930101,232.715324 C363.930101,227.370326 359.533342,223.033557 354.114406,223.033557" id="Fill-1310" fill="#B08C82" fill-rule="evenodd"></path>
                        <path d="M157.835509,213.351791 C146.997638,213.351791 138.204119,222.018422 138.204119,232.715324 C138.204119,243.405319 146.997638,252.07195 157.835509,252.07195 C168.680382,252.07195 177.4669,243.405319 177.4669,232.715324 C177.4669,222.018422 168.680382,213.351791 157.835509,213.351791" id="Fill-1311" fill="#FFD6CC" fill-rule="evenodd"></path>
                        <path d="M157.835509,223.033557 C152.416574,223.033557 148.026815,227.370326 148.026815,232.715324 C148.026815,238.060322 152.416574,242.390184 157.835509,242.390184 C163.254445,242.390184 167.651204,238.060322 167.651204,232.715324 C167.651204,227.370326 163.254445,223.033557 157.835509,223.033557" id="Fill-1312" fill="#DEB4A9" fill-rule="evenodd"></path>
                        <path d="M347.113197,193.995164 L336.181649,290.79211 C326.263064,336.383488 280.408045,387.589055 253.878271,387.589055 C227.348496,387.589055 183.393068,340.495816 172.766567,290.79211 L160.649995,193.995164 C160.649995,140.752356 202.605047,97.1913138 253.878271,97.1913138 C305.158145,97.1913138 347.113197,140.752356 347.113197,193.995164 Z" id="Fill-1313" fill="#FFD6CC" fill-rule="evenodd"></path>
                        <path d="M197.091289,387.589055 C197.091289,418.207647 223.457842,443.032107 255.971457,443.032107 C288.492073,443.032107 314.858627,418.207647 314.858627,387.589055 L314.858627,794.147273 L197.091289,794.147273 L197.091289,387.589055" id="Fill-1317" fill="#A3C6F0" fill-rule="evenodd"></path>
                        <path d="M206.906984,213.351791 C217.744856,213.351791 226.531373,222.018422 226.531373,232.715324 C226.531373,243.405319 217.744856,252.07195 206.906984,252.07195 C196.069112,252.07195 187.275594,243.405319 187.275594,232.715324 C187.275594,222.018422 196.069112,213.351791 206.906984,213.351791" id="Fill-1319" fill="#FFFFFF" fill-rule="evenodd"></path>
                        <path d="M305.042932,213.351791 C315.887804,213.351791 324.674322,222.018422 324.674322,232.715324 C324.674322,243.405319 315.887804,252.07195 305.042932,252.07195 C294.20506,252.07195 285.418543,243.405319 285.418543,232.715324 C285.418543,222.018422 294.20506,213.351791 305.042932,213.351791" id="Fill-1320" fill="#FFFFFF" fill-rule="evenodd"></path>
                        <path d="M206.906984,223.033557 C212.32592,223.033557 216.722679,227.370326 216.722679,232.715324 C216.722679,238.060322 212.32592,242.390184 206.906984,242.390184 C201.488048,242.390184 197.091289,238.060322 197.091289,232.715324 C197.091289,227.370326 201.488048,223.033557 206.906984,223.033557" id="Fill-1321" fill="#4990E2" fill-rule="evenodd"></path>
                        <path d="M305.042932,223.033557 C310.468869,223.033557 314.858627,227.370326 314.858627,232.715324 C314.858627,238.060322 310.468869,242.390184 305.042932,242.390184 C299.623996,242.390184 295.234238,238.060322 295.234238,232.715324 C295.234238,227.370326 299.623996,223.033557 305.042932,223.033557" id="Fill-1322" fill="#4990E2" fill-rule="evenodd"></path>
                        <path d="M197.091289,227.874441 C199.800757,227.874441 201.999136,230.035919 201.999136,232.715324 C201.999136,235.387823 199.800757,237.549301 197.091289,237.549301 C194.381821,237.549301 192.183441,235.387823 192.183441,232.715324 C192.183441,230.035919 194.381821,227.874441 197.091289,227.874441" id="Fill-1323" fill="#FFFFFF" fill-rule="evenodd"></path>
                        <path d="M295.234238,227.874441 C297.943706,227.874441 300.142085,230.042825 300.142085,232.715324 C300.142085,235.387823 297.943706,237.556207 295.234238,237.556207 C292.52477,237.556207 290.32639,235.387823 290.32639,232.715324 C290.32639,230.042825 292.52477,227.874441 295.234238,227.874441" id="Fill-1324" fill="#FFFFFF" fill-rule="evenodd"></path>
                        <path d="M255.971457,227.895158 C258.673924,227.895158 260.865302,229.918085 260.865302,232.42081 L260.858301,250.594741 C260.858301,253.090982 258.673924,255.139845 255.971457,255.139845 L246.162763,255.139845 C243.432292,255.139845 241.234568,279.50919 241.234568,282.024882 C241.234568,284.534091 243.425947,286.582954 246.142416,286.582954 L255.95111,286.582954 C258.653577,286.582954 260.844955,288.612365 260.844955,291.108606 C260.844955,293.611331 258.653577,295.640742 255.95111,295.640742 L246.142416,295.65371 C238.007011,295.65371 231.418873,289.552508 231.418873,282.024882 C231.418873,274.510224 238.034359,246.049637 246.162763,246.049637 L251.084613,246.049637 L251.084613,232.42081 C251.084613,229.918085 253.275992,227.895158 255.971457,227.895158 Z" id="Fill-1326" fill="#B08C82" fill-rule="evenodd"></path>
                        <path d="M254.228156,350.270749 C275.903899,350.270749 293.483935,332.937487 293.483935,311.55059 L214.972377,311.55059 C214.972377,332.937487 232.545412,350.270749 254.228156,350.270749" id="Fill-1177" fill="#222C30" fill-rule="evenodd"></path>
                        <path d="M254.991288,348.855084 C261.887479,348.855084 268.370598,347.101041 274.006572,344.014201 C268.370598,340.934267 261.887479,339.173318 254.991288,339.173318 C248.088096,339.173318 241.611977,340.934267 235.976004,344.014201 C241.611977,347.101041 248.088096,348.855084 254.991288,348.855084" id="Fill-1178" fill="#DE314E" fill-rule="evenodd"></path>
                        <path d="M283.66824,311.55059 C283.66824,316.867965 279.243476,321.232356 273.852545,321.232356 L234.596766,321.232356 C229.212836,321.232356 224.788072,316.874871 224.788072,311.55059 L283.66824,311.55059" id="Fill-1180" fill="#FFFFFF" fill-rule="evenodd"></path>
                        <g id="Eyebrows" stroke-width="1" fill="none" fill-rule="evenodd" transform="translate(186.967540, 193.359097)">
                            <path d="M0.329056827,10.3109281 C0.329056827,7.65224052 2.51343406,5.49076204 5.21590077,5.49076204 C5.21590077,5.49076204 15.0473906,0.781686313 19.9359429,0.781686313 C24.860752,0.781686313 34.655985,5.49076204 34.655985,5.49076204 C37.3584517,5.49076204 39.5428289,7.65224052 39.5428289,10.3109281 C39.5428289,12.9765214 37.3584517,15.1379998 34.655985,15.1379998 C34.655985,15.1379998 24.4867542,10.3119956 19.9359429,10.3109281 C14.6733928,10.3096937 5.21590077,15.1310942 5.21590077,15.1310942 C2.51343406,15.1310942 0.329056827,12.9765214 0.329056827,10.3109281 Z" id="Fill-1327" fill="#663300"></path>
                            <path d="M98.4650046,10.3109281 C98.4650046,7.65224052 100.656383,5.49076204 103.35885,5.49076204 C103.35885,5.49076204 113.3891,2.07989738 118.075391,2.07989738 C123.202461,2.07989738 132.798934,5.49076204 132.798934,5.49076204 C135.501401,5.49076204 137.685778,7.65224052 137.685778,10.3109281 C137.685778,12.9765214 135.501401,15.1379998 132.798934,15.1379998 C132.798934,15.1379998 122.30184,10.3119195 118.075391,10.3109281 C112.488479,10.3096176 103.35885,15.1310942 103.35885,15.1310942 C100.656383,15.1310942 98.4650046,12.9765214 98.4650046,10.3109281 Z" id="Fill-1328" fill="#663300"></path>
                        </g>
                        <path d="M197.091289,387.589055 L98.9553409,435.99098 L98.9483397,435.99098 L98.5002623,436.218867 L98.0451838,436.439849 L97.5901052,436.667737 L97.1350266,436.888719 L96.6869492,437.116606 L96.2318706,437.344494 L94.8876385,438.048873 L94.8806372,438.048873 L94.4395611,438.290572 L93.9914837,438.539177 L93.5504075,438.780876 L93.1093313,439.036386 L92.6752564,439.291896 C92.528231,439.38167 92.3812056,439.464538 92.2411814,439.554312 C92.094156,439.63718 91.9471306,439.726954 91.8071065,439.816728 L91.3800327,440.092955 L90.952959,440.369182 C90.8129348,440.458956 90.6729106,440.555636 90.5328864,440.652315 C90.3928622,440.742089 90.2598393,440.845674 90.1198151,440.942354 C89.9727897,441.039034 89.8397667,441.135713 89.6997425,441.239298 C89.5667196,441.335978 89.4266954,441.439563 89.2936724,441.543148 C89.1606494,441.639828 89.0276265,441.750319 88.8946035,441.853904 C88.7615805,441.957489 88.6285575,442.061074 88.4955346,442.171565 C88.3625116,442.282056 88.2294886,442.385642 88.0964656,442.496132 C87.9704439,442.606623 87.8374209,442.717114 87.7113991,442.834511 C87.5853774,442.945002 87.4593556,443.062398 87.3333339,443.179795 C87.2003109,443.290286 87.0742891,443.407682 86.9552686,443.531985 C86.8292468,443.649381 86.7102262,443.766778 86.5842045,443.89108 C86.4651839,444.015382 86.3391622,444.139685 86.2201416,444.263987 C86.1011211,444.388289 85.9821005,444.519497 85.8630799,444.6438 C85.7440594,444.775008 85.6250388,444.906215 85.5130195,445.037423 C85.3939989,445.175537 85.2819796,445.306745 85.1699602,445.444859 C85.0579409,445.582972 84.9459216,445.721086 84.8339022,445.8592 C84.7218829,445.997313 84.6098635,446.135427 84.5048454,446.287352 C84.3998272,446.425466 84.2878079,446.577391 84.1827898,446.72241 C84.0777716,446.867429 83.9797547,447.019354 83.8747366,447.171279 C83.7697184,447.323204 83.6717015,447.475129 83.5666834,447.63396 C83.4686664,447.785885 83.3706495,447.944716 83.2726326,448.103546 C83.1746157,448.269283 83.0835999,448.428113 82.985583,448.59385 L82.9785818,448.59385 C82.8875661,448.759586 82.8035516,448.925322 82.7055346,449.091059 C82.6145189,449.263701 82.5305044,449.436343 82.4394887,449.608985 C82.348473,449.781627 82.2644585,449.954269 82.180444,450.133817 C82.0964295,450.313364 82.0124149,450.492912 81.9284004,450.679366 C81.8443859,450.858913 81.7673726,451.045367 81.6903593,451.238726 L81.6833581,451.238726 C81.613346,451.425179 81.5293315,451.611633 81.4593194,451.811897 C81.3823061,451.998351 81.312294,452.198616 81.2352807,452.39888 C81.1652686,452.59224 81.0952566,452.792504 81.0322457,452.999675 C80.9622336,453.19994 80.8992227,453.40711 80.8292106,453.614281 C80.7732009,453.828357 80.7031888,454.035527 80.6471792,454.249603 C80.5841683,454.463679 80.5281586,454.684661 80.4721489,454.905643 C80.4161393,455.126625 80.3531284,455.347607 80.3111211,455.568589 C80.2551115,455.796476 80.1991018,456.024364 80.1570945,456.259157 C80.1010849,456.487044 80.0590776,456.721837 80.0170704,456.963536 C79.9680619,457.198329 79.9260546,457.440028 79.8840474,457.681727 C79.8420401,457.923426 79.8070341,458.172031 79.772028,458.427541 L79.7650268,458.427541 C79.737022,458.66924 79.7020159,458.92475 79.6670099,459.18026 C79.6320039,459.43577 79.6110002,459.698186 79.5759942,459.960602 C79.5479893,460.216113 79.5199845,460.485434 79.4989809,460.74785 C79.4779773,461.024077 79.4569736,461.293399 79.43597,461.569626 C79.4149664,461.845853 79.400964,462.122081 79.3869615,462.405214 C79.3729591,462.688347 79.3589567,462.97148 79.3519555,463.261518 C79.3379531,463.551557 79.3309519,463.841596 79.3309519,464.131634 C79.3239507,464.435484 79.3239507,464.732429 79.3239507,465.036279 L79.3239507,697.357234 L138.204119,697.357234 L138.204119,890.951124 L197.091289,890.951124 L197.091289,387.589055 L197.091289,387.589055 Z M432.625965,503.756438 L432.625965,465.036279 C432.625965,445.672746 422.663244,440.755901 413.001576,435.99098 L314.858627,387.589055 L314.858627,890.951124 L373.745796,890.951124 L373.745796,697.350328 L432.625965,697.350328 L432.618964,503.756438 L432.625965,503.756438 L432.625965,503.756438 Z" id="Fill-1331" fill="#BA1717" fill-rule="evenodd"></path>
                        <path d="M432.625965,503.756438 L432.625965,465.036279 C432.625965,445.672746 422.663244,440.755901 413.001576,435.99098 L314.858627,387.589055 L314.858627,527.808928 L432.625965,643.969406 L432.618964,503.756438 L432.625965,503.756438" id="Fill-1332" fill="#990000" fill-rule="evenodd"></path>
                        <path d="M157.835509,561.833224 L177.4669,561.833224 L177.4669,542.469691 L157.835509,542.469691 L157.835509,561.833224 Z M118.572729,542.469691 L118.57973,561.833224 L138.204119,561.833224 L138.204119,542.469691 L118.572729,542.469691 L118.572729,542.469691 Z M118.57973,600.553383 L138.204119,600.553383 L138.204119,581.18985 L118.57973,581.18985 L118.57973,600.553383 Z M118.57973,523.113064 L138.204119,523.113064 L138.204119,503.756438 L118.57973,503.756438 L118.57973,523.113064 Z M157.835509,523.113064 L177.4669,523.113064 L177.4669,503.756438 L157.835509,503.756438 L157.835509,523.113064 Z M157.835509,677.993701 L177.4669,677.993701 L177.4669,658.637074 L157.835509,658.637074 L157.835509,677.993701 Z M118.572729,658.637074 L118.57973,677.993701 L138.204119,677.993701 L138.204119,658.637074 L118.572729,658.637074 L118.572729,658.637074 Z M118.57973,639.280448 L138.204119,639.280448 L138.204119,619.91001 L118.57973,619.91001 L118.57973,639.280448 Z M157.835509,639.273542 L177.4669,639.273542 L177.4669,619.91001 L157.835509,619.91001 L157.835509,639.273542 Z M157.835509,600.553383 L177.4669,600.553383 L177.4669,581.18985 L157.835509,581.18985 L157.835509,600.553383 Z M157.835509,755.434019 L177.4669,755.434019 L177.4669,736.077393 L157.835509,736.077393 L157.835509,755.434019 Z M157.835509,716.71386 L177.4669,716.71386 L177.4669,697.357234 L157.835509,697.357234 L157.835509,716.71386 Z M157.835509,871.601403 L177.4669,871.601403 L177.4669,852.23787 L157.835509,852.23787 L157.835509,871.601403 Z M157.835509,832.881243 L177.4669,832.881243 L177.4669,813.517711 L157.835509,813.517711 L157.835509,832.881243 Z M157.835509,794.154179 L177.4669,794.154179 L177.4669,774.797552 L157.835509,774.797552 L157.835509,794.154179 Z M157.835509,445.672746 L177.4669,445.672746 L177.4669,426.316119 L157.835509,426.316119 L157.835509,445.672746 Z M118.572729,426.316119 L118.57973,445.672746 L138.204119,445.672746 L138.204119,426.316119 L118.572729,426.316119 L118.572729,426.316119 Z M157.835509,484.392905 L177.4669,484.392905 L177.4669,465.036279 L157.835509,465.036279 L157.835509,484.392905 Z M118.57973,484.392905 L138.204119,484.392905 L138.204119,465.036279 L118.57973,465.036279 L118.57973,484.392905 Z M79.3239507,600.553383 L98.9553409,600.553383 L98.9553409,581.18985 L79.3239507,581.18985 L79.3239507,561.833224 L98.9553409,561.833224 L98.9553409,542.469691 L79.3239507,542.469691 L79.3239507,523.113064 L98.9553409,523.113064 L98.9553409,503.756438 L79.3239507,503.756438 L79.3239507,484.392905 L98.9553409,484.392905 L98.9553409,465.036279 L79.3239507,465.036279 C79.3239507,458.165125 80.5351598,451.169669 84.9809276,445.672746 L98.9553409,445.672746 L98.9553409,435.99098 L118.57973,426.309214 L157.835509,406.952587 L177.4669,406.952587 L177.4669,397.270821 L197.091289,387.589055 L197.091289,890.951124 L138.204119,890.951124 L138.204119,697.357234 L79.3239507,697.357234 L79.3239507,677.993701 L98.9553409,677.993701 L98.9553409,658.637074 L79.3239507,658.637074 L79.3239507,639.280448 L98.9553409,639.280448 L98.9553409,619.91001 L79.3239507,619.91001 L79.3239507,600.553383 L79.3239507,600.553383 Z" id="Fill-1333" fill="#40494D" fill-rule="evenodd"></path>
                        <path d="M138.204119,503.756438 L157.835509,503.756438 L157.835509,484.392905 L138.204119,484.392905 L138.204119,503.756438 Z M98.9553409,465.036279 L118.57973,465.036279 L118.57973,445.672746 L98.9553409,445.672746 L98.9553409,465.036279 Z M138.204119,465.036279 L157.835509,465.036279 L157.835509,445.672746 L138.204119,445.672746 L138.204119,465.036279 Z M98.9553409,503.756438 L118.57973,503.756438 L118.57973,484.392905 L98.9553409,484.392905 L98.9553409,503.756438 Z M177.4669,503.756438 L197.091289,503.756438 L197.091289,484.392905 L177.4669,484.392905 L177.4669,503.756438 Z M177.4669,465.036279 L197.091289,465.036279 L197.091289,445.672746 L177.4669,445.672746 L177.4669,465.036279 Z M177.4669,426.316119 L197.091289,426.316119 L197.091289,406.952587 L177.4669,406.952587 L177.4669,426.316119 Z M138.204119,581.18985 L157.835509,581.18985 L157.835509,561.833224 L138.204119,561.833224 L138.204119,581.18985 Z M98.9553409,542.469691 L118.57973,542.469691 L118.57973,523.113064 L98.9553409,523.113064 L98.9553409,542.469691 Z M138.204119,542.469691 L157.835509,542.469691 L157.835509,523.113064 L138.204119,523.113064 L138.204119,542.469691 Z M98.9553409,581.18985 L118.57973,581.18985 L118.57973,561.833224 L98.9553409,561.833224 L98.9553409,581.18985 Z M177.4669,581.18985 L197.091289,581.18985 L197.091289,561.833224 L177.4669,561.833224 L177.4669,581.18985 Z M177.4669,542.469691 L197.091289,542.469691 L197.091289,523.113064 L177.4669,523.113064 L177.4669,542.469691 Z M138.204119,658.637074 L157.835509,658.637074 L157.835509,639.280448 L138.204119,639.280448 L138.204119,658.637074 Z M98.9553409,619.916915 L118.57973,619.916915 L118.57973,600.553383 L98.9553409,600.553383 L98.9553409,619.916915 Z M138.204119,619.916915 L157.835509,619.916915 L157.835509,600.553383 L138.204119,600.553383 L138.204119,619.916915 Z M98.9553409,658.637074 L118.57973,658.637074 L118.57973,639.280448 L98.9553409,639.280448 L98.9553409,658.637074 Z M177.4669,658.637074 L197.091289,658.637074 L197.091289,639.280448 L177.4669,639.280448 L177.4669,658.637074 Z M177.4669,619.916915 L197.091289,619.916915 L197.091289,600.553383 L177.4669,600.553383 L177.4669,619.916915 Z M138.204119,736.077393 L157.835509,736.077393 L157.835509,716.71386 L138.204119,716.71386 L138.204119,736.077393 Z M98.9553409,697.357234 L118.57973,697.357234 L118.57973,677.993701 L98.9553409,677.993701 L98.9553409,697.357234 Z M138.204119,697.357234 L157.835509,697.357234 L157.835509,677.993701 L138.204119,677.993701 L138.204119,697.357234 Z M177.4669,736.077393 L197.091289,736.077393 L197.091289,716.71386 L177.4669,716.71386 L177.4669,736.077393 Z M177.4669,697.357234 L197.091289,697.357234 L197.091289,677.993701 L177.4669,677.993701 L177.4669,697.357234 Z M138.204119,813.517711 L157.835509,813.517711 L157.835509,794.161084 L138.204119,794.161084 L138.204119,813.517711 Z M138.204119,774.797552 L157.835509,774.797552 L157.835509,755.434019 L138.204119,755.434019 L138.204119,774.797552 Z M177.4669,813.517711 L197.091289,813.517711 L197.091289,794.161084 L177.4669,794.161084 L177.4669,813.517711 Z M177.4669,774.797552 L197.091289,774.797552 L197.091289,755.434019 L177.4669,755.434019 L177.4669,774.797552 Z M138.204119,890.951124 L157.835509,890.951124 L157.835509,871.594497 L138.204119,871.594497 L138.204119,890.951124 Z M138.204119,852.230964 L157.835509,852.230964 L157.835509,832.874338 L138.204119,832.874338 L138.204119,852.230964 Z M177.4669,890.951124 L197.091289,890.951124 L197.091289,871.594497 L177.4669,871.594497 L177.4669,890.951124 Z M177.4669,852.230964 L197.091289,852.230964 L197.091289,832.874338 L177.4669,832.874338 L177.4669,852.230964 Z M138.204119,416.634353 L157.835509,406.952587 L157.835509,426.316119 L138.204119,426.316119 L138.204119,416.634353 L138.204119,416.634353 Z" id="Fill-1334" fill="#222C30" fill-rule="evenodd"></path>
                        <path d="M334.490017,561.833224 L354.114406,561.833224 L354.114406,542.469691 L334.490017,542.469691 L334.490017,561.833224 Z M373.745796,561.833224 L393.370185,561.833224 L393.370185,542.469691 L373.745796,542.469691 L373.745796,561.833224 Z M373.745796,600.553383 L393.370185,600.553383 L393.370185,581.18985 L373.745796,581.18985 L373.745796,600.553383 Z M373.745796,523.113064 L393.370185,523.113064 L393.370185,503.756438 L373.745796,503.756438 L373.745796,523.113064 Z M334.490017,523.113064 L354.114406,523.113064 L354.114406,503.756438 L334.490017,503.756438 L334.490017,523.113064 Z M334.490017,677.993701 L354.114406,677.993701 L354.114406,658.637074 L334.490017,658.637074 L334.490017,677.993701 Z M373.745796,677.993701 L393.370185,677.993701 L393.370185,658.637074 L373.745796,658.637074 L373.745796,677.993701 Z M373.745796,639.280448 L393.370185,639.280448 L393.370185,619.91001 L373.745796,619.91001 L373.745796,639.280448 Z M334.490017,639.273542 L354.114406,639.273542 L354.114406,619.91001 L334.490017,619.91001 L334.490017,639.273542 Z M334.490017,600.553383 L354.114406,600.553383 L354.114406,581.18985 L334.490017,581.18985 L334.490017,600.553383 Z M334.490017,755.434019 L354.114406,755.434019 L354.114406,736.077393 L334.490017,736.077393 L334.490017,755.434019 Z M334.490017,716.71386 L354.114406,716.71386 L354.114406,697.357234 L334.490017,697.357234 L334.490017,716.71386 Z M334.490017,871.601403 L354.114406,871.601403 L354.114406,852.23787 L334.490017,852.23787 L334.490017,871.601403 Z M334.490017,832.881243 L354.114406,832.881243 L354.114406,813.517711 L334.490017,813.517711 L334.490017,832.881243 Z M334.490017,794.154179 L354.114406,794.154179 L354.114406,774.797552 L334.490017,774.797552 L334.490017,794.154179 Z M334.490017,445.672746 L354.114406,445.672746 L354.114406,426.316119 L334.490017,426.316119 L334.490017,445.672746 Z M373.745796,445.672746 L393.370185,445.672746 L393.370185,426.316119 L373.745796,426.316119 L373.745796,445.672746 Z M334.490017,484.392905 L354.114406,484.392905 L354.114406,465.036279 L334.490017,465.036279 L334.490017,484.392905 Z M373.745796,484.392905 L393.370185,484.392905 L393.370185,465.036279 L373.745796,465.036279 L373.745796,484.392905 Z M432.625965,600.553383 L413.001576,600.553383 L413.001576,581.18985 L432.625965,581.18985 L432.625965,561.833224 L413.001576,561.833224 L413.001576,542.469691 L432.625965,542.469691 L432.625965,523.113064 L413.001576,523.113064 L413.001576,503.756438 L432.625965,503.756438 L432.625965,484.392905 L413.001576,484.392905 L413.001576,465.036279 L432.625965,465.036279 C432.625965,458.165125 431.414756,451.169669 426.968988,445.672746 L413.001576,445.672746 L413.001576,435.99098 L354.114406,406.952587 L334.490017,406.952587 L334.490017,397.270821 L314.858627,387.589055 L314.858627,890.951124 L373.745796,890.951124 L373.745796,697.357234 L432.625965,697.357234 L432.625965,677.993701 L413.001576,677.993701 L413.001576,658.637074 L432.625965,658.637074 L432.625965,639.280448 L413.001576,639.280448 L413.001576,619.91001 L432.625965,619.91001 L432.625965,600.553383 L432.625965,600.553383 Z" id="Fill-1335" fill="#40494D" fill-rule="evenodd"></path>
                        <path d="M373.745796,561.833224 L393.370185,561.833224 L393.370185,542.469691 L373.745796,542.469691 L373.745796,561.833224 Z M373.745796,523.113064 L393.370185,523.113064 L393.370185,503.756438 L373.745796,503.756438 L373.745796,523.113064 Z M334.490017,523.113064 L354.114406,523.113064 L354.114406,503.756438 L334.490017,503.756438 L334.490017,523.113064 Z M334.490017,445.672746 L354.114406,445.672746 L354.114406,426.316119 L334.490017,426.316119 L334.490017,445.672746 Z M373.745796,445.672746 L393.370185,445.672746 L393.370185,426.316119 L373.745796,426.316119 L373.745796,445.672746 Z M334.490017,484.392905 L354.114406,484.392905 L354.114406,465.036279 L334.490017,465.036279 L334.490017,484.392905 Z M373.745796,484.392905 L393.370185,484.392905 L393.370185,465.036279 L373.745796,465.036279 L373.745796,484.392905 Z M432.625965,643.976311 L432.625965,639.280448 L427.865143,639.280448 L432.625965,643.976311 L432.625965,643.976311 Z M432.625965,600.553383 L413.001576,600.553383 L413.001576,581.18985 L432.625965,581.18985 L432.625965,561.833224 L413.001576,561.833224 L413.001576,542.469691 L432.625965,542.469691 L432.625965,523.113064 L413.001576,523.113064 L413.001576,503.756438 L432.625965,503.756438 L432.625965,484.392905 L413.001576,484.392905 L413.001576,465.036279 L432.625965,465.036279 C432.625965,458.165125 431.414756,451.169669 426.968988,445.672746 L413.001576,445.672746 L413.001576,435.99098 L354.114406,406.952587 L334.490017,406.952587 L334.490017,397.270821 L314.858627,387.589055 L314.858627,527.808928 L334.490017,547.172461 L334.490017,542.469691 L354.114406,542.469691 L354.114406,561.833224 L349.346583,561.833224 L373.745796,585.89262 L373.745796,581.18985 L393.370185,581.18985 L393.370185,600.553383 L388.609363,600.553383 L413.001576,624.612779 L413.001576,619.91001 L432.625965,619.91001 L432.625965,600.553383 L432.625965,600.553383 Z" id="Fill-1336" fill="#222C30" fill-rule="evenodd"></path>
                        <path d="M354.114406,503.756438 L373.745796,503.756438 L373.745796,484.392905 L354.114406,484.392905 L354.114406,503.756438 Z M393.370185,465.036279 L413.001576,465.036279 L413.001576,445.672746 L393.370185,445.672746 L393.370185,465.036279 Z M354.114406,465.036279 L373.745796,465.036279 L373.745796,445.672746 L354.114406,445.672746 L354.114406,465.036279 Z M393.370185,503.756438 L413.001576,503.756438 L413.001576,484.392905 L393.370185,484.392905 L393.370185,503.756438 Z M314.858627,503.756438 L334.490017,503.756438 L334.490017,484.392905 L314.858627,484.392905 L314.858627,503.756438 Z M314.858627,465.036279 L334.490017,465.036279 L334.490017,445.672746 L314.858627,445.672746 L314.858627,465.036279 Z M314.858627,426.316119 L334.490017,426.316119 L334.490017,406.952587 L314.858627,406.952587 L314.858627,426.316119 Z M354.114406,581.18985 L373.745796,581.18985 L373.745796,561.833224 L354.114406,561.833224 L354.114406,581.18985 Z M393.370185,542.469691 L413.001576,542.469691 L413.001576,523.113064 L393.370185,523.113064 L393.370185,542.469691 Z M354.114406,542.469691 L373.745796,542.469691 L373.745796,523.113064 L354.114406,523.113064 L354.114406,542.469691 Z M393.370185,581.18985 L413.001576,581.18985 L413.001576,561.833224 L393.370185,561.833224 L393.370185,581.18985 Z M314.858627,581.18985 L334.490017,581.18985 L334.490017,561.833224 L314.858627,561.833224 L314.858627,581.18985 Z M314.858627,542.469691 L334.490017,542.469691 L334.490017,523.113064 L314.858627,523.113064 L314.858627,542.469691 Z M354.114406,658.637074 L373.745796,658.637074 L373.745796,639.280448 L354.114406,639.280448 L354.114406,658.637074 Z M393.370185,619.916915 L413.001576,619.916915 L413.001576,600.553383 L393.370185,600.553383 L393.370185,619.916915 Z M354.114406,619.916915 L373.745796,619.916915 L373.745796,600.553383 L354.114406,600.553383 L354.114406,619.916915 Z M393.370185,658.637074 L413.001576,658.637074 L413.001576,639.280448 L393.370185,639.280448 L393.370185,658.637074 Z M314.858627,658.637074 L334.490017,658.637074 L334.490017,639.280448 L314.858627,639.280448 L314.858627,658.637074 Z M314.858627,619.916915 L334.490017,619.916915 L334.490017,600.553383 L314.858627,600.553383 L314.858627,619.916915 Z M354.114406,736.077393 L373.745796,736.077393 L373.745796,716.71386 L354.114406,716.71386 L354.114406,736.077393 Z M393.370185,697.357234 L413.001576,697.357234 L413.001576,677.993701 L393.370185,677.993701 L393.370185,697.357234 Z M354.114406,697.357234 L373.745796,697.357234 L373.745796,677.993701 L354.114406,677.993701 L354.114406,697.357234 Z M314.858627,736.077393 L334.490017,736.077393 L334.490017,716.71386 L314.858627,716.71386 L314.858627,736.077393 Z M314.858627,697.357234 L334.490017,697.357234 L334.490017,677.993701 L314.858627,677.993701 L314.858627,697.357234 Z M354.114406,813.517711 L373.745796,813.517711 L373.745796,794.161084 L354.114406,794.161084 L354.114406,813.517711 Z M354.114406,774.797552 L373.745796,774.797552 L373.745796,755.434019 L354.114406,755.434019 L354.114406,774.797552 Z M314.858627,813.517711 L334.490017,813.517711 L334.490017,794.161084 L314.858627,794.161084 L314.858627,813.517711 Z M314.858627,774.797552 L334.490017,774.797552 L334.490017,755.434019 L314.858627,755.434019 L314.858627,774.797552 Z M354.114406,890.951124 L373.745796,890.951124 L373.745796,871.594497 L354.114406,871.594497 L354.114406,890.951124 Z M354.114406,852.230964 L373.745796,852.230964 L373.745796,832.874338 L354.114406,832.874338 L354.114406,852.230964 Z M314.858627,890.951124 L334.490017,890.951124 L334.490017,871.594497 L314.858627,871.594497 L314.858627,890.951124 Z M314.858627,852.230964 L334.490017,852.230964 L334.490017,832.874338 L314.858627,832.874338 L314.858627,852.230964 Z M373.745796,416.634353 L354.114406,406.952587 L354.114406,426.316119 L373.745796,426.316119 L373.745796,416.634353 L373.745796,416.634353 Z" id="Fill-1337" fill="#222C30" fill-rule="evenodd"></path>
                        <g id="Hair" stroke-width="1" fill="none" fill-rule="evenodd" transform="translate(155.159267, 64.007755)">
                            <path d="M7.17842591,166.640082 C4.60556762,166.640082 2.51802885,165.378918 2.51802885,163.81556 L2.51802885,107.337212 C2.51802885,91.0226775 16.1074696,41.7969261 41.504716,41.7969261 C66.9019623,41.7969261 73.4511336,12.2925705 100.369747,12.2925705 C127.275063,12.2925705 141.123913,16.3420419 162.892862,31.2594798 C184.661812,46.1769178 198.221464,91.0226775 198.221464,107.337212 L198.221464,163.81556 C198.221464,165.378918 196.133926,166.640082 193.561067,166.640082 C190.988209,166.640082 188.90067,165.378918 188.90067,163.81556 L188.90067,107.337212 C188.90067,92.5860362 158.008618,107.337212 151.287464,88.921883 C144.566309,70.506554 109.083919,97.4861778 92.6057028,78.5501666 C76.1274863,59.6141554 52.922896,89.4068747 41.504716,74.532545 C30.086536,59.6582153 11.838823,92.5860362 11.838823,107.337212 L11.838823,163.81556 C11.838823,165.378918 9.7512842,166.640082 7.17842591,166.640082 Z" id="Fill-1073" fill="#8B572A"></path>
                        </g>
                        <g id="Glasses" stroke-width="1" fill="none" fill-rule="evenodd" transform="translate(147.025391, 207.965359)">
                            <path d="M108.946066,0.545548881 C115.555208,0.545548881 121.555244,3.12827396 125.966006,7.32002295 C128.65447,3.14899101 133.317275,0.545548881 138.393152,0.545548881 L211.996863,0.545548881 C214.706331,0.545548881 216.90471,2.71393304 216.90471,5.38643199 C216.90471,8.05893093 214.706331,10.2273151 211.996863,10.2273151 L197.27332,10.2273151 L197.27332,24.7499644 C197.27332,38.0641194 186.246416,48.9474742 172.741083,48.9474742 L148.208847,48.9474742 C134.703515,48.9474742 123.669609,38.0641194 123.669609,24.7499644 C123.669609,16.7255619 117.081471,10.2273151 108.946066,10.2273151 L105.025389,5.38643199 L108.946066,0.545548881 L108.946066,0.545548881 Z M187.464626,10.2273151 L138.393152,10.2273151 C135.683684,10.2273151 133.485304,12.3956992 133.485304,15.0681982 L133.485304,24.7499644 C133.485304,32.7191215 140.12245,39.265708 148.208847,39.265708 L172.741083,39.265708 C180.82748,39.265708 187.464626,32.7191215 187.464626,24.7499644 L187.464626,10.2273151 L187.464626,10.2273151 Z" id="Fill-1329" fill="#56361A"></path>
                            <path d="M79.5059821,10.2273151 L30.4415088,10.2273151 L30.4415088,24.7499644 C30.4415088,32.7191215 37.0716538,39.265708 45.1580503,39.265708 L69.6972882,39.265708 C77.7766835,39.265708 84.4138297,32.7191215 84.4138297,24.7499644 L84.4138297,15.0681982 C84.4138297,12.3956992 82.21545,10.2273151 79.5059821,10.2273151 L79.5059821,10.2273151 Z M5.90227097,10.2273151 C3.19280305,10.2273151 1.00142461,8.05893093 1.00142461,5.38643199 C1.00142461,2.71393304 3.19280305,0.545548881 5.90227097,0.545548881 L79.5059821,0.545548881 C84.5818587,0.545548881 89.2446639,3.14899101 91.9331282,7.32002295 C96.3438899,3.12827396 102.343926,0.545548881 108.946066,0.545548881 L108.946066,10.2273151 C100.817663,10.2273151 94.2295248,16.7255619 94.2295248,24.7499644 C94.2295248,38.0641194 83.1956193,48.9474742 69.6972882,48.9474742 L45.1580503,48.9474742 C31.652718,48.9474742 20.6258137,38.0641194 20.6258137,24.7499644 L20.6258137,10.2273151 L5.90227097,10.2273151 L5.90227097,10.2273151 Z" id="Fill-1330" fill="#563619"></path>
                        </g>
                    </g>
                </g>
            </g>
        </g>
    </g>
</svg>